<?xml version="1.0" encoding="UTF-8" standalone="no"?>
<svg xmlns="http://www.w3.org/2000/svg" xmlns:xlink="http://www.w3.org/1999/xlink" focusable="true" height="348.0" id="workspace" preserveAspectRatio="xMinYMin" viewBox="-422.0 -171.0 1096.0 348.0" width="1096.0">
<path d="M-281,20 C-290,20 -300,47 -309,47" fill="#495879" fill-opacity="1" stroke="#495879" stroke-opacity="1" stroke-width="1px" style="fill:none " visibility="visible"/>
<path d="M148,67 C157,67 167,121 176,121" fill="#495879" fill-opacity="1" stroke="#495879" stroke-opacity="1" stroke-width="1px" style="fill:none " visibility="visible"/>
<path d="M259,51 C268,51 278,92 287,92" fill="#495879" fill-opacity="1" stroke="#495879" stroke-opacity="1" stroke-width="1px" style="fill:none " visibility="visible"/>
<path d="M259,51 C268,51 278,65 287,65" fill="#495879" fill-opacity="1" stroke="#495879" stroke-opacity="1" stroke-width="1px" style="fill:none " visibility="visible"/>
<path d="M259,51 C268,51 278,37 287,37" fill="#495879" fill-opacity="1" stroke="#495879" stroke-opacity="1" stroke-width="1px" style="fill:none " visibility="visible"/>
<path d="M259,51 C268,51 278,9 287,9" fill="#495879" fill-opacity="1" stroke="#495879" stroke-opacity="1" stroke-width="1px" style="fill:none " visibility="visible"/>
<path d="M148,67 C157,67 167,51 176,51" fill="#495879" fill-opacity="1" stroke="#495879" stroke-opacity="1" stroke-width="1px" style="fill:none " visibility="visible"/>
<path d="M0,0 C35,0 72,66 107,66 72,69 35,5 0,7 Z" fill="#495879" fill-opacity="1" stroke="#495879" stroke-opacity="1" stroke-width="1px" style="fill:#495879 " visibility="visible"/>
<path d="M-281,20 C-290,20 -300,21 -309,21" fill="#495879" fill-opacity="1" stroke="#495879" stroke-opacity="1" stroke-width="1px" style="fill:none " visibility="visible"/>
<path d="M-281,20 C-290,20 -301,-7 -310,-7" fill="#495879" fill-opacity="1" stroke="#495879" stroke-opacity="1" stroke-width="1px" style="fill:none " visibility="visible"/>
<path d="M-189,21 C-198,21 -209,20 -218,20" fill="#495879" fill-opacity="1" stroke="#495879" stroke-opacity="1" stroke-width="1px" style="fill:none " visibility="visible"/>
<path d="M0,0 C-35,0 -72,21 -107,21 -72,24 -35,5 0,7 Z" fill="#495879" fill-opacity="1" stroke="#495879" stroke-opacity="1" stroke-width="1px" style="fill:#495879 " visibility="visible"/>
<path d="M365,-20 C374,-20 385,-19 394,-19" fill="#495879" fill-opacity="1" stroke="#495879" stroke-opacity="1" stroke-width="1px" style="fill:none " visibility="visible"/>
<path d="M271,-19 C280,-19 291,-20 300,-20" fill="#495879" fill-opacity="1" stroke="#495879" stroke-opacity="1" stroke-width="1px" style="fill:none " visibility="visible"/>
<path d="M165,-59 C174,-59 185,-19 194,-19" fill="#495879" fill-opacity="1" stroke="#495879" stroke-opacity="1" stroke-width="1px" style="fill:none " visibility="visible"/>
<path d="M221,-75 C230,-75 241,-48 250,-48" fill="#495879" fill-opacity="1" stroke="#495879" stroke-opacity="1" stroke-width="1px" style="fill:none " visibility="visible"/>
<path d="M221,-75 C230,-75 240,-76 249,-76" fill="#495879" fill-opacity="1" stroke="#495879" stroke-opacity="1" stroke-width="1px" style="fill:none " visibility="visible"/>
<path d="M221,-75 C230,-75 240,-103 249,-103" fill="#495879" fill-opacity="1" stroke="#495879" stroke-opacity="1" stroke-width="1px" style="fill:none " visibility="visible"/>
<path d="M165,-59 C174,-59 185,-75 194,-75" fill="#495879" fill-opacity="1" stroke="#495879" stroke-opacity="1" stroke-width="1px" style="fill:none " visibility="visible"/>
<path d="M0,0 C36,0 72,-59 108,-59 72,-56 36,5 0,7 Z" fill="#495879" fill-opacity="1" stroke="#495879" stroke-opacity="1" stroke-width="1px" style="fill:#495879 " visibility="visible"/>
<rect fill="#CC0033" fill-opacity="0.4" height="25" rx="0" ry="0" stroke="#FF9933" stroke-opacity="0.4" stroke-width="1px" visibility="hidden" width="85" x="-190" y="-2"/>
<path d="M-226,11 C-213.66666666666666,14.333333333333336 -201.33333333333334,17.666666666666664 -189,21" fill-opacity="0.4" stroke="#CC0033" stroke-opacity="0.4" stroke-width="1px" style="fill:none " visibility="hidden"/>
<path fill-opacity="0.4" stroke="#CC0033" stroke-opacity="0.4" stroke-width="1px" style="fill:none " visibility="hidden"/>
<g focusable="true" height="100" preserveAspectRatio="none" transform="translate(-77,-20) scale(1,1)" visibility="visible" width="100">
<rect fill="rgb(252,235,192)" fill-opacity="0" height="46" rx="6.8999999999999995" ry="6.8999999999999995" stroke="rgb(241,163,39)" stroke-opacity="0" stroke-width="1px" style="cursor: default;" width="159" x="-2" y="-3"/>
<rect fill="rgb(80,157,192)" height="40" rx="6" ry="6" stroke="rgb(57,113,177)" stroke-width="2px" style="cursor: default;" width="155" x="0" y="0"/>
<text fill="#ffffff" font-family="verdana" font-size="13.4375" font-style="normal" font-weight="bold" style="cursor: default;" visibility="visible" x="11" y="11">
<tspan dy="1em" x="11">Appsfuel Webapp</tspan>
</text>
<g focusable="true" height="18" preserveAspectRatio="none" transform="translate(011) scale(00.18)" width="0"/>
</g>
<g focusable="true" height="100" preserveAspectRatio="none" transform="translate(108,-80) scale(1,1)" visibility="visible" width="100">
<rect fill="rgb(252,235,192)" fill-opacity="0" height="27" rx="4.05" ry="4.05" stroke="rgb(241,163,39)" stroke-opacity="0" stroke-width="1px" width="60" x="-2" y="-3"/>
<line stroke="#495879" stroke-opacity="1" stroke-width="1px" style="cursor: move;" x1="0" x2="56" y1="21" y2="21"/>
<text fill="rgb(82,92,97)" font-family="verdana" font-size="10.75" font-style="normal" font-weight="normal" style="cursor: move;" visibility="visible" x="3" y="3">
<tspan dy="1em" x="3">Usability</tspan>
</text>
<ellipse cx="59" cy="21" fill="rgb(224,229,239)" height="6" rx="3" ry="3" stroke="rgb(2,59,185)" stroke-width="1px" style="cursor: default;" visibility="visible" width="6"/>
<g focusable="true" height="15" preserveAspectRatio="none" transform="translate(03) scale(00.15)" width="0"/>
</g>
<g focusable="true" height="100" preserveAspectRatio="none" transform="translate(194,-93) scale(1,1)" visibility="visible" width="100">
<rect fill="rgb(252,235,192)" fill-opacity="0" height="24" rx="3.5999999999999996" ry="3.5999999999999996" stroke="rgb(241,163,39)" stroke-opacity="0" stroke-width="1px" width="30" x="-2" y="-3"/>
<line stroke="#495879" stroke-opacity="1" stroke-width="1px" style="cursor: move;" x1="0" x2="26" y1="18" y2="18"/>
<text fill="rgb(82,92,97)" font-family="verdana" font-size="8.0625" font-style="normal" font-weight="normal" style="cursor: move;" visibility="visible" x="3" y="3">
<tspan dy="1em" x="3">GUI</tspan>
</text>
<ellipse cx="29" cy="18" fill="rgb(224,229,239)" height="6" rx="3" ry="3" stroke="rgb(2,59,185)" stroke-width="1px" style="cursor: default;" visibility="visible" width="6"/>
<g focusable="true" height="12" preserveAspectRatio="none" transform="translate(03) scale(00.12)" width="0"/>
</g>
<g focusable="true" height="100" preserveAspectRatio="none" transform="translate(249,-121) scale(1,1)" visibility="visible" width="100">
<rect fill="rgb(252,235,192)" fill-opacity="0" height="24" rx="3.5999999999999996" ry="3.5999999999999996" stroke="rgb(241,163,39)" stroke-opacity="0" stroke-width="1px" width="31" x="-2" y="-3"/>
<line stroke="#495879" stroke-opacity="1" stroke-width="1px" style="cursor: move;" x1="0" x2="27" y1="18" y2="18"/>
<text fill="rgb(82,92,97)" font-family="verdana" font-size="8.0625" font-style="normal" font-weight="normal" style="cursor: move;" visibility="visible" x="3" y="3">
<tspan dy="1em" x="3">Grid</tspan>
</text>
<ellipse cx="3" cy="3" fill="rgb(224,229,239)" height="6" rx="3" ry="3" stroke="rgb(2,59,185)" stroke-width="1px" style="cursor: default;" visibility="hidden" width="6"/>
<g focusable="true" height="12" preserveAspectRatio="none" transform="translate(03) scale(00.12)" width="0"/>
</g>
<g focusable="true" height="100" preserveAspectRatio="none" transform="translate(249,-92) scale(1,1)" visibility="visible" width="100">
<rect fill="rgb(252,235,192)" fill-opacity="0" height="22" rx="3.3" ry="3.3" stroke="rgb(241,163,39)" stroke-opacity="0" stroke-width="1px" style="cursor: move;" width="52" x="-2" y="-3"/>
<line stroke="#495879" stroke-opacity="1" stroke-width="1px" style="cursor: move;" x1="0" x2="48" y1="16" y2="16"/>
<text fill="rgb(82,92,97)" font-family="verdana" font-size="8.0625" font-style="normal" font-weight="normal" style="cursor: move;" visibility="visible" x="3" y="3">
<tspan dy="1em" x="3">Paginator</tspan>
</text>
<ellipse cx="3" cy="3" fill="rgb(224,229,239)" height="6" rx="3" ry="3" stroke="rgb(2,59,185)" stroke-width="1px" style="cursor: default;" visibility="hidden" width="6"/>
<g focusable="true" height="10" preserveAspectRatio="none" transform="translate(03) scale(00.1)" width="0"/>
</g>
<g focusable="true" height="100" preserveAspectRatio="none" transform="translate(250,-64) scale(1,1)" visibility="visible" width="100">
<rect fill="rgb(252,235,192)" fill-opacity="0" height="22" rx="3.3" ry="3.3" stroke="rgb(241,163,39)" stroke-opacity="0" stroke-width="1px" style="cursor: move;" width="49" x="-2" y="-3"/>
<line stroke="#495879" stroke-opacity="1" stroke-width="1px" style="cursor: move;" x1="0" x2="45" y1="16" y2="16"/>
<text fill="rgb(82,92,97)" font-family="verdana" font-size="8.0625" font-style="normal" font-weight="normal" style="cursor: move;" visibility="visible" x="3" y="3">
<tspan dy="1em" x="3">Carousel</tspan>
</text>
<ellipse cx="3" cy="3" fill="rgb(224,229,239)" height="6" rx="3" ry="3" stroke="rgb(2,59,185)" stroke-width="1px" style="cursor: default;" visibility="hidden" width="6"/>
<g focusable="true" height="10" preserveAspectRatio="none" transform="translate(03) scale(00.1)" width="0"/>
</g>
<g focusable="true" height="100" preserveAspectRatio="none" transform="translate(194,-37) scale(1,1)" visibility="visible" width="100">
<rect fill="rgb(252,235,192)" fill-opacity="0" height="24" rx="3.5999999999999996" ry="3.5999999999999996" stroke="rgb(241,163,39)" stroke-opacity="0" stroke-width="1px" width="80" x="-2" y="-3"/>
<line stroke="#495879" stroke-opacity="1" stroke-width="1px" style="cursor: move;" x1="0" x2="76" y1="18" y2="18"/>
<text fill="rgb(82,92,97)" font-family="verdana" font-size="8.0625" font-style="normal" font-weight="normal" style="cursor: move;" visibility="visible" x="3" y="3">
<tspan dy="1em" x="3">User Interaction</tspan>
</text>
<ellipse cx="79" cy="18" fill="rgb(224,229,239)" height="6" rx="3" ry="3" stroke="rgb(2,59,185)" stroke-width="1px" style="cursor: default;" visibility="visible" width="6"/>
<g focusable="true" height="12" preserveAspectRatio="none" transform="translate(03) scale(00.12)" width="0"/>
</g>
<g focusable="true" height="100" preserveAspectRatio="none" transform="translate(300,-36) scale(1,1)" visibility="visible" width="100">
<rect fill="rgb(252,235,192)" fill-opacity="0" height="22" rx="3.3" ry="3.3" stroke="rgb(241,163,39)" stroke-opacity="0" stroke-width="1px" style="cursor: move;" width="68" x="-2" y="-3"/>
<line stroke="#495879" stroke-opacity="1" stroke-width="1px" style="cursor: move;" x1="0" x2="64" y1="16" y2="16"/>
<text fill="rgb(82,92,97)" font-family="verdana" font-size="8.0625" font-style="normal" font-weight="normal" style="cursor: move;" visibility="visible" x="3" y="3">
<tspan dy="1em" x="3">Touch Events</tspan>
</text>
<ellipse cx="67" cy="16" fill="rgb(224,229,239)" height="6" rx="3" ry="3" stroke="rgb(2,59,185)" stroke-width="1px" style="cursor: default;" visibility="visible" width="6"/>
<g focusable="true" height="10" preserveAspectRatio="none" transform="translate(03) scale(00.1)" width="0"/>
</g>
<g focusable="true" height="100" preserveAspectRatio="none" transform="translate(394,-37) scale(1,1)" visibility="visible" width="100">
<rect fill="rgb(252,235,192)" fill-opacity="0" height="24" rx="3.5999999999999996" ry="3.5999999999999996" stroke="rgb(241,163,39)" stroke-opacity="0" stroke-width="1px" width="230" x="-2" y="-3"/>
<line stroke="#495879" stroke-opacity="1" stroke-width="1px" style="cursor: move;" x1="0" x2="226" y1="18" y2="18"/>
<text fill="rgb(82,92,97)" font-family="verdana" font-size="8.0625" font-style="normal" font-weight="normal" style="cursor: move;" visibility="visible" x="3" y="3">
<tspan dy="1em" x="3">The insane compulsion for users to touch the screen</tspan>
</text>
<ellipse cx="3" cy="3" fill="rgb(224,229,239)" height="6" rx="3" ry="3" stroke="rgb(2,59,185)" stroke-width="1px" style="cursor: default;" visibility="hidden" width="6"/>
<g focusable="true" height="12" preserveAspectRatio="none" transform="translate(03) scale(00.12)" width="0"/>
</g>
<g focusable="true" height="100" preserveAspectRatio="none" transform="translate(-188,0) scale(1,1)" visibility="visible" width="100">
<rect fill="rgb(252,235,192)" fill-opacity="0" height="27" rx="4.05" ry="4.05" stroke="rgb(241,163,39)" stroke-opacity="0" stroke-width="1px" width="85" x="-2" y="-3"/>
<line stroke="#495879" stroke-opacity="1" stroke-width="1px" style="cursor: move;" x1="0" x2="81" y1="21" y2="21"/>
<text fill="rgb(82,92,97)" font-family="verdana" font-size="10.75" font-style="normal" font-weight="normal" style="cursor: move;" visibility="visible" x="3" y="3">
<tspan dy="1em" x="3">Performance</tspan>
</text>
<ellipse cx="-3" cy="21" fill="rgb(224,229,239)" height="6" rx="3" ry="3" stroke="rgb(2,59,185)" stroke-width="1px" style="cursor: default;" visibility="visible" width="6"/>
<g focusable="true" height="15" preserveAspectRatio="none" transform="translate(03) scale(00.15)" width="0"/>
</g>
<g focusable="true" height="100" preserveAspectRatio="none" transform="translate(-280,2) scale(1,1)" visibility="visible" width="100">
<rect fill="rgb(252,235,192)" fill-opacity="0" height="24" rx="3.5999999999999996" ry="3.5999999999999996" stroke="rgb(241,163,39)" stroke-opacity="0" stroke-width="1px" style="cursor: move;" width="66" x="-2" y="-3"/>
<line stroke="#495879" stroke-opacity="1" stroke-width="1px" style="cursor: move;" x1="0" x2="62" y1="18" y2="18"/>
<text fill="rgb(82,92,97)" font-family="verdana" font-size="8.0625" font-style="normal" font-weight="normal" style="cursor: move;" visibility="visible" x="3" y="3">
<tspan dy="1em" x="3">Optimization</tspan>
</text>
<ellipse cx="-3" cy="18" fill="rgb(224,229,239)" height="6" rx="3" ry="3" stroke="rgb(2,59,185)" stroke-width="1px" style="cursor: default;" visibility="visible" width="6"/>
<g focusable="true" height="12" preserveAspectRatio="none" transform="translate(03) scale(00.12)" width="0"/>
</g>
<g focusable="true" height="100" preserveAspectRatio="none" transform="translate(-372,-25) scale(1,1)" visibility="visible" width="100">
<rect fill="rgb(252,235,192)" fill-opacity="0" height="24" rx="3.5999999999999996" ry="3.5999999999999996" stroke="rgb(241,163,39)" stroke-opacity="0" stroke-width="1px" width="66" x="-2" y="-3"/>
<line stroke="#495879" stroke-opacity="1" stroke-width="1px" style="cursor: move;" x1="0" x2="62" y1="18" y2="18"/>
<text fill="rgb(82,92,97)" font-family="verdana" font-size="8.0625" font-style="normal" font-weight="normal" style="cursor: move;" visibility="visible" x="3" y="3">
<tspan dy="1em" x="3">Grid Recycle</tspan>
</text>
<ellipse cx="3" cy="3" fill="rgb(224,229,239)" height="6" rx="3" ry="3" stroke="rgb(2,59,185)" stroke-width="1px" style="cursor: default;" visibility="hidden" width="6"/>
<g focusable="true" height="12" preserveAspectRatio="none" transform="translate(03) scale(00.12)" width="0"/>
</g>
<g focusable="true" height="100" preserveAspectRatio="none" transform="translate(-352,3) scale(1,1)" visibility="visible" width="100">
<rect fill="rgb(252,235,192)" fill-opacity="0" height="24" rx="3.5999999999999996" ry="3.5999999999999996" stroke="rgb(241,163,39)" stroke-opacity="0" stroke-width="1px" width="47" x="-2" y="-3"/>
<line stroke="#495879" stroke-opacity="1" stroke-width="1px" style="cursor: move;" x1="0" x2="43" y1="18" y2="18"/>
<text fill="rgb(82,92,97)" font-family="verdana" font-size="8.0625" font-style="normal" font-weight="normal" style="cursor: move;" visibility="visible" x="3" y="3">
<tspan dy="1em" x="3">Caching</tspan>
</text>
<ellipse cx="3" cy="3" fill="rgb(224,229,239)" height="6" rx="3" ry="3" stroke="rgb(2,59,185)" stroke-width="1px" style="cursor: default;" visibility="hidden" width="6"/>
<g focusable="true" height="12" preserveAspectRatio="none" transform="translate(03) scale(00.12)" width="0"/>
</g>
<g focusable="true" height="100" preserveAspectRatio="none" transform="translate(107,45) scale(1,1)" visibility="visible" width="100">
<rect fill="rgb(252,235,192)" fill-opacity="0" height="27" rx="4.05" ry="4.05" stroke="rgb(241,163,39)" stroke-opacity="0" stroke-width="1px" width="43" x="-2" y="-3"/>
<line stroke="#495879" stroke-opacity="1" stroke-width="1px" style="cursor: move;" x1="0" x2="39" y1="21" y2="21"/>
<text fill="rgb(82,92,97)" font-family="verdana" font-size="10.75" font-style="normal" font-weight="normal" style="cursor: move;" visibility="visible" x="3" y="3">
<tspan dy="1em" x="3">Costs</tspan>
</text>
<ellipse cx="42" cy="21" fill="rgb(224,229,239)" height="6" rx="3" ry="3" stroke="rgb(2,59,185)" stroke-width="1px" style="cursor: default;" visibility="visible" width="6"/>
<g focusable="true" height="15" preserveAspectRatio="none" transform="translate(03) scale(00.15)" width="0"/>
</g>
<g focusable="true" height="100" preserveAspectRatio="none" transform="translate(176,33) scale(1,1)" visibility="visible" width="100">
<rect fill="rgb(252,235,192)" fill-opacity="0" height="24" rx="3.5999999999999996" ry="3.5999999999999996" stroke="rgb(241,163,39)" stroke-opacity="0" stroke-width="1px" width="85" x="-2" y="-3"/>
<line stroke="#495879" stroke-opacity="1" stroke-width="1px" style="cursor: move;" x1="0" x2="81" y1="18" y2="18"/>
<text fill="rgb(82,92,97)" font-family="verdana" font-size="8.0625" font-style="normal" font-weight="normal" style="cursor: move;" visibility="visible" x="3" y="3">
<tspan dy="1em" x="3">External Libraries</tspan>
</text>
<ellipse cx="84" cy="18" fill="rgb(224,229,239)" height="6" rx="3" ry="3" stroke="rgb(2,59,185)" stroke-width="1px" style="cursor: default;" visibility="visible" width="6"/>
<g focusable="true" height="12" preserveAspectRatio="none" transform="translate(03) scale(00.12)" width="0"/>
</g>
<g focusable="true" height="100" preserveAspectRatio="none" transform="translate(287,-9) scale(1,1)" visibility="visible" width="100">
<rect fill="rgb(252,235,192)" fill-opacity="0" height="24" rx="3.5999999999999996" ry="3.5999999999999996" stroke="rgb(241,163,39)" stroke-opacity="0" stroke-width="1px" width="49" x="-2" y="-3"/>
<line stroke="#495879" stroke-opacity="1" stroke-width="1px" style="cursor: move;" x1="0" x2="45" y1="18" y2="18"/>
<text fill="rgb(82,92,97)" font-family="verdana" font-size="8.0625" font-style="normal" font-weight="normal" style="cursor: move;" visibility="visible" x="3" y="3">
<tspan dy="1em" x="3">Swipe.js</tspan>
</text>
<ellipse cx="3" cy="3" fill="rgb(224,229,239)" height="6" rx="3" ry="3" stroke="rgb(2,59,185)" stroke-width="1px" style="cursor: default;" visibility="hidden" width="6"/>
<g focusable="true" height="12" preserveAspectRatio="none" transform="translate(03) scale(00.12)" width="0"/>
</g>
<g focusable="true" height="100" preserveAspectRatio="none" transform="translate(287,19) scale(1,1)" visibility="visible" width="100">
<rect fill="rgb(252,235,192)" fill-opacity="0" height="24" rx="3.5999999999999996" ry="3.5999999999999996" stroke="rgb(241,163,39)" stroke-opacity="0" stroke-width="1px" width="43" x="-2" y="-3"/>
<line stroke="#495879" stroke-opacity="1" stroke-width="1px" style="cursor: move;" x1="0" x2="39" y1="18" y2="18"/>
<text fill="rgb(82,92,97)" font-family="verdana" font-size="8.0625" font-style="normal" font-weight="normal" style="cursor: move;" visibility="visible" x="3" y="3">
<tspan dy="1em" x="3">Path.js</tspan>
</text>
<ellipse cx="3" cy="3" fill="rgb(224,229,239)" height="6" rx="3" ry="3" stroke="rgb(2,59,185)" stroke-width="1px" style="cursor: default;" visibility="hidden" width="6"/>
<g focusable="true" height="12" preserveAspectRatio="none" transform="translate(03) scale(00.12)" width="0"/>
</g>
<g focusable="true" height="100" preserveAspectRatio="none" transform="translate(287,47) scale(1,1)" visibility="visible" width="100">
<rect fill="rgb(252,235,192)" fill-opacity="0" height="24" rx="3.5999999999999996" ry="3.5999999999999996" stroke="rgb(241,163,39)" stroke-opacity="0" stroke-width="1px" width="49" x="-2" y="-3"/>
<line stroke="#495879" stroke-opacity="1" stroke-width="1px" style="cursor: move;" x1="0" x2="45" y1="18" y2="18"/>
<text fill="rgb(82,92,97)" font-family="verdana" font-size="8.0625" font-style="normal" font-weight="normal" style="cursor: move;" visibility="visible" x="3" y="3">
<tspan dy="1em" x="3">BusterJS</tspan>
</text>
<ellipse cx="3" cy="3" fill="rgb(224,229,239)" height="6" rx="3" ry="3" stroke="rgb(2,59,185)" stroke-width="1px" style="cursor: default;" visibility="hidden" width="6"/>
<g focusable="true" height="12" preserveAspectRatio="none" transform="translate(03) scale(00.12)" width="0"/>
</g>
<g focusable="true" height="100" preserveAspectRatio="none" transform="translate(287,76) scale(1,1)" visibility="visible" width="100">
<rect fill="rgb(252,235,192)" fill-opacity="0" height="22" rx="3.3" ry="3.3" stroke="rgb(241,163,39)" stroke-opacity="0" stroke-width="1px" style="cursor: move;" width="67" x="-2" y="-3"/>
<line stroke="#495879" stroke-opacity="1" stroke-width="1px" style="cursor: move;" x1="0" x2="63" y1="16" y2="16"/>
<text fill="rgb(82,92,97)" font-family="verdana" font-size="8.0625" font-style="normal" font-weight="normal" style="cursor: move;" visibility="visible" x="3" y="3">
<tspan dy="1em" x="3">JSdoc Toolkit</tspan>
</text>
<ellipse cx="3" cy="3" fill="rgb(224,229,239)" height="6" rx="3" ry="3" stroke="rgb(2,59,185)" stroke-width="1px" style="cursor: default;" visibility="hidden" width="6"/>
<g focusable="true" height="10" preserveAspectRatio="none" transform="translate(03) scale(00.1)" width="0"/>
</g>
<g focusable="true" height="100" preserveAspectRatio="none" transform="translate(176,103) scale(1,1)" visibility="visible" width="100">
<rect fill="rgb(252,235,192)" fill-opacity="0" height="24" rx="3.5999999999999996" ry="3.5999999999999996" stroke="rgb(241,163,39)" stroke-opacity="0" stroke-width="1px" width="65" x="-2" y="-3"/>
<line stroke="#495879" stroke-opacity="1" stroke-width="1px" style="cursor: move;" x1="0" x2="61" y1="18" y2="18"/>
<text fill="rgb(82,92,97)" font-family="verdana" font-size="8.0625" font-style="normal" font-weight="normal" style="cursor: move;" visibility="visible" x="3" y="3">
<tspan dy="1em" x="3">Code Reuse</tspan>
</text>
<ellipse cx="3" cy="3" fill="rgb(224,229,239)" height="6" rx="3" ry="3" stroke="rgb(2,59,185)" stroke-width="1px" style="cursor: default;" visibility="hidden" width="6"/>
<g focusable="true" height="12" preserveAspectRatio="none" transform="translate(03) scale(00.12)" width="0"/>
</g>
<rect fill="#CC0033" fill-opacity="0.4" height="6" rx="0" ry="0" stroke="#FF9933" stroke-opacity="0.4" stroke-width="1px" visibility="hidden" width="50" x="-274" y="8"/>
<g focusable="true" height="100" preserveAspectRatio="none" transform="translate(-368,31) scale(1,1)" visibility="visible" width="100">
<rect fill="rgb(252,235,192)" fill-opacity="0" height="22" rx="3.3" ry="3.3" stroke="rgb(241,163,39)" stroke-opacity="0" stroke-width="1px" style="cursor: move;" width="63" x="-2" y="-3"/>
<line stroke="#495879" stroke-opacity="1" stroke-width="1px" style="cursor: move;" x1="0" x2="59" y1="16" y2="16"/>
<text fill="rgb(82,92,97)" font-family="verdana" font-size="8.0625" font-style="normal" font-weight="normal" style="cursor: move;" visibility="visible" x="3" y="3">
<tspan dy="1em" x="3">Data Source</tspan>
</text>
<g focusable="true" height="10" preserveAspectRatio="none" transform="translate(03) scale(00.1)" width="0"/>
<ellipse cx="3" cy="3" fill="rgb(224,229,239)" height="6" rx="3" ry="3" stroke="rgb(2,59,185)" stroke-width="1px" style="cursor: default;" visibility="hidden" width="6"/>
</g>
</svg>
