<?xml version="1.0" encoding="UTF-8" standalone="no"?>
<svg xmlns="http://www.w3.org/2000/svg" xmlns:xlink="http://www.w3.org/1999/xlink" focusable="true" height="242.0" id="workspace" preserveAspectRatio="xMinYMin" viewBox="-131.0 -112.0 559.0 242.0" width="559.0">
<path d="M0,0 C37,0 74,-17 111,-17 74,-14 37,5 0,7 Z" fill="#495879" fill-opacity="1" stroke="#495879" stroke-opacity="1" stroke-width="1px" style="fill:#495879 " visibility="visible"/>
<rect fill="#CC0033" fill-opacity="0.4" height="21" rx="0" ry="0" stroke="#FF9933" stroke-opacity="0.4" stroke-width="1px" visibility="hidden" width="72" x="302" y="-10"/>
<path d="M498,-27 C456.3333333333333,-14.999999999999995 414.6666666666667,-3.0000000000000053 373,9" fill-opacity="0.4" stroke="#CC0033" stroke-opacity="0.4" stroke-width="1px" style="fill:none " visibility="hidden"/>
<path d="M125,-20 C83.33333333333334,-13.333333333333336 41.666666666666664,-6.666666666666666 0,0" fill-opacity="0.4" stroke="#CC0033" stroke-opacity="0.4" stroke-width="1px" style="fill:none " visibility="hidden"/>
<path d="M0,0 C37,0 74,61 111,61 74,64 37,5 0,7 Z" fill="#495879" fill-opacity="1" stroke="#495879" stroke-opacity="1" stroke-width="1px" style="fill:#495879 " visibility="visible"/>
<path d="M281,61 C290,61 300,74 309,74" fill="#495879" fill-opacity="1" stroke="#495879" stroke-opacity="1" stroke-width="1px" style="fill:none " visibility="visible"/>
<path d="M281,61 C290,61 300,47 309,47" fill="#495879" fill-opacity="1" stroke="#495879" stroke-opacity="1" stroke-width="1px" style="fill:none " visibility="visible"/>
<path d="M186,61 C195,61 205,60 214,60" fill="#495879" fill-opacity="1" stroke="#495879" stroke-opacity="1" stroke-width="1px" style="fill:none " visibility="visible"/>
<path d="M275,9 C284,9 295,9 304,9" fill="#495879" fill-opacity="1" stroke="#495879" stroke-opacity="1" stroke-width="1px" style="fill:none " visibility="visible"/>
<path d="M164,-17 C173,-17 183,9 192,9" fill="#495879" fill-opacity="1" stroke="#495879" stroke-opacity="1" stroke-width="1px" style="fill:none " visibility="visible"/>
<path d="M221,-31 C230,-31 240,-18 249,-18" fill="#495879" fill-opacity="1" stroke="#495879" stroke-opacity="1" stroke-width="1px" style="fill:none " visibility="visible"/>
<path d="M221,-31 C230,-31 240,-45 249,-45" fill="#495879" fill-opacity="1" stroke="#495879" stroke-opacity="1" stroke-width="1px" style="fill:none " visibility="visible"/>
<path d="M164,-17 C173,-17 183,-31 192,-31" fill="#495879" fill-opacity="1" stroke="#495879" stroke-opacity="1" stroke-width="1px" style="fill:none " visibility="visible"/>
<g focusable="true" height="100" preserveAspectRatio="none" transform="translate(-81,-20) scale(1,1)" visibility="visible" width="100">
<rect fill="rgb(252,235,192)" fill-opacity="0" height="46" rx="6.8999999999999995" ry="6.8999999999999995" stroke="rgb(241,163,39)" stroke-opacity="0" stroke-width="1px" style="cursor: default;" width="167" x="-2" y="-3"/>
<rect fill="rgb(80,157,192)" height="40" rx="6" ry="6" stroke="rgb(57,113,177)" stroke-width="2px" style="cursor: default;" width="163" x="0" y="0"/>
<text fill="#ffffff" font-family="verdana" font-size="13.4375" font-style="normal" font-weight="bold" style="cursor: default;" visibility="visible" x="11" y="11">
<tspan dy="1em" x="11">Appsfuel Webapp</tspan>
</text>
<g focusable="true" height="18" preserveAspectRatio="none" transform="translate(011) scale(00.18)" width="0"/>
</g>
<g focusable="true" height="100" preserveAspectRatio="none" transform="translate(111,-37) scale(1,1)" visibility="visible" width="100">
<rect fill="rgb(252,235,192)" fill-opacity="0" height="26" rx="3.9" ry="3.9" stroke="rgb(241,163,39)" stroke-opacity="0" stroke-width="1px" style="cursor: move;" width="55" x="-2" y="-3"/>
<line stroke="#495879" stroke-opacity="1" stroke-width="1px" style="cursor: move;" visibility="visible" x1="0" x2="51" y1="20" y2="20"/>
<text fill="rgb(82,92,97)" font-family="verdana" font-size="10.75" font-style="normal" font-weight="normal" style="cursor: move;" visibility="visible" x="3" y="3">
<tspan dy="1em" x="3">Usability</tspan>
</text>
<g focusable="true" height="14" preserveAspectRatio="none" transform="translate(03) scale(00.14)" width="0"/>
<ellipse cx="54" cy="20" fill="rgb(224,229,239)" height="6" rx="3" ry="3" stroke="rgb(2,59,185)" stroke-width="1px" style="cursor: default;" visibility="visible" width="6"/>
</g>
<g focusable="true" height="100" preserveAspectRatio="none" transform="translate(192,-48) scale(1,1)" visibility="visible" width="100">
<rect fill="rgb(252,235,192)" fill-opacity="0" height="23" rx="3.4499999999999997" ry="3.4499999999999997" stroke="rgb(241,163,39)" stroke-opacity="0" stroke-width="1px" width="31" x="-2" y="-3"/>
<line stroke="#495879" stroke-opacity="1" stroke-width="1px" style="cursor: move;" x1="0" x2="27" y1="17" y2="17"/>
<text fill="rgb(82,92,97)" font-family="verdana" font-size="8.0625" font-style="normal" font-weight="normal" style="cursor: move;" visibility="visible" x="3" y="3">
<tspan dy="1em" x="3">GUI</tspan>
</text>
<ellipse cx="30" cy="17" fill="rgb(224,229,239)" height="6" rx="3" ry="3" stroke="rgb(2,59,185)" stroke-width="1px" style="cursor: default;" visibility="visible" width="6"/>
<g focusable="true" height="11" preserveAspectRatio="none" transform="translate(03) scale(00.11)" width="0"/>
</g>
<g focusable="true" height="100" preserveAspectRatio="none" transform="translate(249,-62) scale(1,1)" visibility="visible" width="100">
<rect fill="rgb(252,235,192)" fill-opacity="0" height="23" rx="3.4499999999999997" ry="3.4499999999999997" stroke="rgb(241,163,39)" stroke-opacity="0" stroke-width="1px" width="33" x="-2" y="-3"/>
<line stroke="#495879" stroke-opacity="1" stroke-width="1px" style="cursor: move;" x1="0" x2="29" y1="17" y2="17"/>
<text fill="rgb(82,92,97)" font-family="verdana" font-size="8.0625" font-style="normal" font-weight="normal" style="cursor: move;" visibility="visible" x="3" y="3">
<tspan dy="1em" x="3">Grid</tspan>
</text>
<ellipse cx="3" cy="3" fill="rgb(224,229,239)" height="6" rx="3" ry="3" stroke="rgb(2,59,185)" stroke-width="1px" style="cursor: default;" visibility="hidden" width="6"/>
<g focusable="true" height="11" preserveAspectRatio="none" transform="translate(03) scale(00.11)" width="0"/>
</g>
<g focusable="true" height="100" preserveAspectRatio="none" transform="translate(249,-35) scale(1,1)" visibility="visible" width="100">
<rect fill="rgb(252,235,192)" fill-opacity="0" height="23" rx="3.4499999999999997" ry="3.4499999999999997" stroke="rgb(241,163,39)" stroke-opacity="0" stroke-width="1px" width="53" x="-2" y="-3"/>
<line stroke="#495879" stroke-opacity="1" stroke-width="1px" style="cursor: move;" x1="0" x2="49" y1="17" y2="17"/>
<text fill="rgb(82,92,97)" font-family="verdana" font-size="8.0625" font-style="normal" font-weight="normal" style="cursor: move;" visibility="visible" x="3" y="3">
<tspan dy="1em" x="3">Carousel</tspan>
</text>
<ellipse cx="3" cy="3" fill="rgb(224,229,239)" height="6" rx="3" ry="3" stroke="rgb(2,59,185)" stroke-width="1px" style="cursor: default;" visibility="hidden" width="6"/>
<g focusable="true" height="11" preserveAspectRatio="none" transform="translate(03) scale(00.11)" width="0"/>
</g>
<g focusable="true" height="100" preserveAspectRatio="none" transform="translate(192,-8) scale(1,1)" visibility="visible" width="100">
<rect fill="rgb(252,235,192)" fill-opacity="0" height="23" rx="3.4499999999999997" ry="3.4499999999999997" stroke="rgb(241,163,39)" stroke-opacity="0" stroke-width="1px" width="85" x="-2" y="-3"/>
<line stroke="#495879" stroke-opacity="1" stroke-width="1px" style="cursor: move;" x1="0" x2="81" y1="17" y2="17"/>
<text fill="rgb(82,92,97)" font-family="verdana" font-size="8.0625" font-style="normal" font-weight="normal" style="cursor: move;" visibility="visible" x="3" y="3">
<tspan dy="1em" x="3">User Interaction</tspan>
</text>
<ellipse cx="84" cy="17" fill="rgb(224,229,239)" height="6" rx="3" ry="3" stroke="rgb(2,59,185)" stroke-width="1px" style="cursor: default;" visibility="visible" width="6"/>
<g focusable="true" height="11" preserveAspectRatio="none" transform="translate(03) scale(00.11)" width="0"/>
</g>
<g focusable="true" height="100" preserveAspectRatio="none" transform="translate(304,-8) scale(1,1)" visibility="visible" width="100">
<rect fill="rgb(252,235,192)" fill-opacity="0" height="23" rx="3.4499999999999997" ry="3.4499999999999997" stroke="rgb(241,163,39)" stroke-opacity="0" stroke-width="1px" style="cursor: move;" width="72" x="-2" y="-3"/>
<line stroke="#495879" stroke-opacity="1" stroke-width="1px" style="cursor: move;" x1="0" x2="68" y1="17" y2="17"/>
<text fill="rgb(82,92,97)" font-family="verdana" font-size="8.0625" font-style="normal" font-weight="normal" style="cursor: move;" visibility="visible" x="3" y="3">
<tspan dy="1em" x="3">Touch Events</tspan>
</text>
<ellipse cx="71" cy="17" fill="rgb(224,229,239)" height="6" rx="3" ry="3" stroke="rgb(2,59,185)" stroke-width="1px" style="cursor: default;" visibility="hidden" width="6"/>
<g focusable="true" height="11" preserveAspectRatio="none" transform="translate(03) scale(00.11)" width="0"/>
</g>
<g focusable="true" height="100" preserveAspectRatio="none" transform="translate(111,41) scale(1,1)" visibility="visible" width="100">
<rect fill="rgb(252,235,192)" fill-opacity="0" height="26" rx="3.9" ry="3.9" stroke="rgb(241,163,39)" stroke-opacity="0" stroke-width="1px" style="cursor: move;" width="77" x="-2" y="-3"/>
<line stroke="#495879" stroke-opacity="1" stroke-width="1px" style="cursor: move;" visibility="visible" x1="0" x2="73" y1="20" y2="20"/>
<text fill="rgb(82,92,97)" font-family="verdana" font-size="10.75" font-style="normal" font-weight="normal" style="cursor: move;" visibility="visible" x="3" y="3">
<tspan dy="1em" x="3">Performance</tspan>
</text>
<g focusable="true" height="14" preserveAspectRatio="none" transform="translate(03) scale(00.14)" width="0"/>
<ellipse cx="76" cy="20" fill="rgb(224,229,239)" height="6" rx="3" ry="3" stroke="rgb(2,59,185)" stroke-width="1px" style="cursor: default;" visibility="visible" width="6"/>
</g>
<g focusable="true" height="100" preserveAspectRatio="none" transform="translate(214,43) scale(1,1)" visibility="visible" width="100">
<rect fill="rgb(252,235,192)" fill-opacity="0" height="23" rx="3.4499999999999997" ry="3.4499999999999997" stroke="rgb(241,163,39)" stroke-opacity="0" stroke-width="1px" style="cursor: move;" width="69" x="-2" y="-3"/>
<line stroke="#495879" stroke-opacity="1" stroke-width="1px" style="cursor: move;" x1="0" x2="65" y1="17" y2="17"/>
<text fill="rgb(82,92,97)" font-family="verdana" font-size="8.0625" font-style="normal" font-weight="normal" style="cursor: move;" visibility="visible" x="3" y="3">
<tspan dy="1em" x="3">Optimization</tspan>
</text>
<ellipse cx="68" cy="17" fill="rgb(224,229,239)" height="6" rx="3" ry="3" stroke="rgb(2,59,185)" stroke-width="1px" style="cursor: default;" visibility="visible" width="6"/>
<g focusable="true" height="11" preserveAspectRatio="none" transform="translate(03) scale(00.11)" width="0"/>
</g>
<g focusable="true" height="100" preserveAspectRatio="none" transform="translate(309,30) scale(1,1)" visibility="visible" width="100">
<rect fill="rgb(252,235,192)" fill-opacity="0" height="23" rx="3.4499999999999997" ry="3.4499999999999997" stroke="rgb(241,163,39)" stroke-opacity="0" stroke-width="1px" width="69" x="-2" y="-3"/>
<line stroke="#495879" stroke-opacity="1" stroke-width="1px" style="cursor: move;" x1="0" x2="65" y1="17" y2="17"/>
<text fill="rgb(82,92,97)" font-family="verdana" font-size="8.0625" font-style="normal" font-weight="normal" style="cursor: move;" visibility="visible" x="3" y="3">
<tspan dy="1em" x="3">Grid Recycle</tspan>
</text>
<ellipse cx="3" cy="3" fill="rgb(224,229,239)" height="6" rx="3" ry="3" stroke="rgb(2,59,185)" stroke-width="1px" style="cursor: default;" visibility="hidden" width="6"/>
<g focusable="true" height="11" preserveAspectRatio="none" transform="translate(03) scale(00.11)" width="0"/>
</g>
<g focusable="true" height="100" preserveAspectRatio="none" transform="translate(309,57) scale(1,1)" visibility="visible" width="100">
<rect fill="rgb(252,235,192)" fill-opacity="0" height="23" rx="3.4499999999999997" ry="3.4499999999999997" stroke="rgb(241,163,39)" stroke-opacity="0" stroke-width="1px" width="69" x="-2" y="-3"/>
<line stroke="#495879" stroke-opacity="1" stroke-width="1px" style="cursor: move;" x1="0" x2="65" y1="17" y2="17"/>
<text fill="rgb(82,92,97)" font-family="verdana" font-size="8.0625" font-style="normal" font-weight="normal" style="cursor: move;" visibility="visible" x="3" y="3">
<tspan dy="1em" x="3">Data Source</tspan>
</text>
<ellipse cx="3" cy="3" fill="rgb(224,229,239)" height="6" rx="3" ry="3" stroke="rgb(2,59,185)" stroke-width="1px" style="cursor: default;" visibility="hidden" width="6"/>
<g focusable="true" height="11" preserveAspectRatio="none" transform="translate(03) scale(00.11)" width="0"/>
</g>
<rect fill="#CC0033" fill-opacity="0.4" height="6" rx="0" ry="0" stroke="#FF9933" stroke-opacity="0.4" stroke-width="1px" visibility="hidden" width="50" x="496" y="-30"/>
</svg>
