<?xml version="1.0" encoding="utf-8"?>
<!-- Generator: Adobe Illustrator 15.0.0, SVG Export Plug-In . SVG Version: 6.00 Build 0)  -->
<!DOCTYPE svg PUBLIC "-//W3C//DTD SVG 1.1//EN" "http://www.w3.org/Graphics/SVG/1.1/DTD/svg11.dtd">
<svg version="1.1" xmlns="http://www.w3.org/2000/svg" xmlns:xlink="http://www.w3.org/1999/xlink" x="0px" y="0px" width="1128px"
	 height="424px" viewBox="0 0 1128 424" enable-background="new 0 0 1128 424" xml:space="preserve">
<g id="Layer_5">
	<g id="Layer_5_1_">
		<g>
			<rect x="468.274" y="84.2" fill="none" width="97.148" height="35.75"/>
			<text transform="matrix(1 0 0 1 470.2744 104.876)" fill="#495879" font-family="'FranklinGothic-MediumCond'" font-size="28">Usability</text>
			<rect x="447.774" y="309.2" fill="none" width="138.148" height="35.75"/>
			<text transform="matrix(1 0 0 1 449.7744 329.876)" fill="#495879" font-family="'FranklinGothic-MediumCond'" font-size="28">Performance</text>
			<rect x="662.774" y="315.001" fill="none" width="166.05" height="28.949"/>
			<text transform="matrix(1 0 0 1 664.7744 331.6748)" fill="#495879" font-family="'FranklinGothic-MediumCond'" font-size="22">Optimization</text>
			<rect x="689.774" y="40.5" fill="none" width="39.148" height="28.95"/>
			<text transform="matrix(1 0 0 1 691.7744 57.1738)" fill="#495879" font-family="'FranklinGothic-MediumCond'" font-size="22">GUI</text>
			<rect x="665.774" y="163.052" fill="none" width="143.2" height="28.949"/>
			<text transform="matrix(1 0 0 1 667.7744 179.7246)" fill="#495879" font-family="'FranklinGothic-MediumCond'" font-size="22">User Interaction</text>
			<rect x="844.824" fill="none" width="143.2" height="28.95"/>
			<text transform="matrix(1 0 0 1 846.8242 16.6738)" fill="#495879" font-family="'FranklinGothic-MediumCond'" font-size="22">Grid</text>
			<rect x="844.824" y="82.001" fill="none" width="143.2" height="28.949"/>
			<text transform="matrix(1 0 0 1 846.8242 98.6748)" fill="#495879" font-family="'FranklinGothic-MediumCond'" font-size="22">Carousel</text>
			<rect x="920.824" y="163.052" fill="none" width="143.2" height="28.949"/>
			<text transform="matrix(1 0 0 1 922.8242 179.7246)" fill="#495879" font-family="'FranklinGothic-MediumCond'" font-size="22">Touch Events</text>
			<rect x="920.824" y="261.501" fill="none" width="143.2" height="28.949"/>
			<text transform="matrix(1 0 0 1 922.8242 278.1748)" fill="#495879" font-family="'FranklinGothic-MediumCond'" font-size="22">Grid Recycle</text>
			<rect x="920.824" y="389.001" fill="none" width="143.2" height="28.949"/>
			<text transform="matrix(1 0 0 1 922.8242 405.6748)" fill="#495879" font-family="'FranklinGothic-MediumCond'" font-size="22">Data Source</text>
		</g>
	</g>
</g>
<g id="Layer_3">
	<g>
		<path fill-rule="evenodd" clip-rule="evenodd" fill="#495879" d="M479.1,116.6l59.4-0.1v0.725
			c-7.743,0.194-38.46,0.444-92.15,0.75c-53.687,0.303-84.137,4.985-91.35,14.051V125.4c-2.205-6.299,25.854-9.507,84.175-9.625
			c58.313-0.117,91.422-0.134,99.325-0.051v0.775L479.1,116.6z M581.1,341.2L520.15,341.6h-40.8h40.8L515,341.7
			c-30.667,1-56.55,1.45-77.65,1.35c-21.067-0.166-36.617-3.316-46.65-9.45c-10.034-6.133-18.483-12.466-25.35-19
			c-6.867-6.6-15.467-15.85-25.8-27.75c-13.433-15.833-24.6-28.833-33.5-39c-15.4-17.666-30.9-34.8-46.5-51.399h15.25
			c13.534,15.267,26.684,30.666,39.45,46.2c3.633,4.5,14.2,17.75,31.7,39.75c9.9,12.466,17.583,21.55,23.05,27.25
			c7.167,7.399,14.167,13.416,21,18.05c6.802,4.635,15.319,8.018,25.55,10.149c6.958,1.449,14.741,2.282,23.35,2.5
			c3.319,0.095,6.761,0.095,10.325,0H576.5c0.783,0.006,1.55,0.014,2.3,0.025c2.754,0.043,5.055,0.084,6.9,0.125
			c0.866,0.016,1.633,0.032,2.3,0.05l-4.25,0.4v0.149C582.85,341.1,581.967,341.134,581.1,341.2z"/>
		
			<path fill-rule="evenodd" clip-rule="evenodd" fill="none" stroke="#495879" stroke-width="2" stroke-linecap="round" stroke-linejoin="round" stroke-miterlimit="3" d="
			M538.5,116.5h56.75 M581.1,341.2h49.2 M644.4,341.2l145.5-0.101 M520.15,341.6h-40.8 M581.1,341.2L520.15,341.6 M479.1,116.6
			l59.4-0.1"/>
		
			<path fill-rule="evenodd" clip-rule="evenodd" fill="none" stroke="#6393B9" stroke-width="2.5" stroke-linecap="round" stroke-linejoin="round" stroke-miterlimit="3" d="
			M630.3,341.2c0.003-0.05,0.003-0.101,0-0.15c0-0.133,0-0.267,0-0.399c0-1.934,0.684-3.601,2.05-5c1.4-1.367,3.067-2.051,5-2.051
			c1.934,0,3.584,0.684,4.95,2.051c1.4,1.399,2.101,3.066,2.101,5c0,0.133,0,0.267,0,0.399c-0.003,0.05-0.003,0.101,0,0.15
			c-0.137,1.702-0.837,3.169-2.101,4.399c-1.366,1.4-3.017,2.101-4.95,2.101c-1.933,0-3.6-0.7-5-2.101
			C631.119,344.369,630.436,342.902,630.3,341.2z"/>
	</g>
</g>
<g id="Layer_4">
	<g>
		
			<path fill-rule="evenodd" clip-rule="evenodd" fill="none" stroke="#495879" stroke-width="2" stroke-linecap="round" stroke-linejoin="round" stroke-miterlimit="3" d="
			M857.95,281.9c3.366-0.434,6.717-0.801,10.05-1.101l246.25,0.3 M803.2,344.8c0.5,0.101,1,0.233,1.5,0.4
			c1.7,0.533,3.366,1.467,5,2.8c2.899,2.333,6,6.134,9.3,11.4c2.434,3.899,5.483,9.183,9.15,15.85c4,7.233,6.883,12.316,8.649,15.25
			c6.4,10.6,13.45,16.783,21.15,18.55c3.366,0.533,6.717,0.95,10.05,1.25l246.25-0.2 M826.95,24.05c3.366-0.3,6.717-0.55,10.05-0.75
			l192,0.2 M608.475,113.3c1.517-0.434,3.009-1.1,4.476-2c2.899-1.8,6-4.717,9.3-8.75c2.434-2.967,5.483-7,9.15-12.1
			c4-5.566,6.883-9.45,8.649-11.65c6.4-8.1,13.45-12.833,21.15-14.2c3.366-0.399,6.717-0.733,10.05-1l91.05,0.15 M607.725,121.125
			c5.253,1.411,10.095,6.303,14.525,14.675c5.833,10.867,11.767,21.351,17.8,31.45c6.4,10.767,13.45,17.017,21.15,18.75
			c1.7,0.3,3.8,0.434,6.3,0.4l157.35,0.125 M838.925,186.525l275.325,0.225 M775.75,66.6c1,0.301,1.983,0.684,2.95,1.15
			c2.899,1.366,6,3.6,9.3,6.7c2.434,2.267,5.483,5.35,9.15,9.25c4,4.233,6.883,7.2,8.649,8.899c6.4,6.2,13.45,9.817,21.15,10.851
			c3.366,0.3,6.717,0.55,10.05,0.75l192-0.2"/>
		
			<path fill-rule="evenodd" clip-rule="evenodd" fill="none" stroke="#596684" stroke-width="2" stroke-linecap="round" stroke-linejoin="round" stroke-miterlimit="3" d="
			M775.85,60.85c0.967-0.3,1.917-0.666,2.851-1.1c2.899-1.366,6-3.6,9.3-6.7c2.434-2.267,5.483-5.35,9.15-9.25
			c4-4.233,6.883-7.2,8.649-8.899c6.4-6.2,13.45-9.817,21.15-10.851 M803.675,338.125c0.417-0.083,0.759-0.175,1.025-0.275
			c1.7-0.5,3.366-1.333,5-2.5c2.899-2.066,6-5.416,9.3-10.05c2.434-3.366,5.483-7.967,9.15-13.8c4-6.366,6.883-10.816,8.649-13.35
			c6.4-9.301,13.45-14.717,21.15-16.25"/>
		
			<path fill-rule="evenodd" clip-rule="evenodd" fill="none" stroke="#6394B9" stroke-width="2.5" stroke-linecap="round" stroke-linejoin="round" stroke-miterlimit="3" d="
			M762.3,63.75c0-0.05,0-0.1,0-0.15c0-1.933,0.684-3.6,2.05-5c1.4-1.366,3.067-2.05,5-2.05c1.934,0,3.584,0.684,4.95,2.05
			c0.7,0.7,1.217,1.45,1.55,2.25c0.367,0.834,0.551,1.75,0.551,2.75c0,0.101,0,0.2,0,0.301c-0.034,0.966-0.25,1.866-0.65,2.699
			c-0.366,0.7-0.85,1.351-1.45,1.95c-1.366,1.4-3.017,2.101-4.95,2.101c-1.933,0-3.6-0.7-5-2.101c-1.3-1.3-1.983-2.85-2.05-4.649
			C762.3,63.85,762.3,63.8,762.3,63.75z M607.725,121.125c-0.145,0.183-0.303,0.357-0.475,0.525c-1.366,1.399-3.017,2.1-4.95,2.1
			s-3.6-0.7-5-2.1c-1.366-1.367-2.05-3.017-2.05-4.95c0-0.067,0-0.134,0-0.2c0.048-1.849,0.73-3.448,2.05-4.8
			c1.4-1.367,3.066-2.05,5-2.05s3.584,0.683,4.95,2.05c0.498,0.498,0.906,1.031,1.225,1.6c0.553,0.967,0.844,2.033,0.875,3.2
			c0,0.066,0,0.133,0,0.2C609.35,118.396,608.809,119.871,607.725,121.125z M824.85,186.525c0-0.144,0-0.286,0-0.426
			c0-1.933,0.684-3.6,2.051-5c1.399-1.366,3.066-2.05,5-2.05c1.933,0,3.583,0.684,4.949,2.05c1.4,1.4,2.101,3.067,2.101,5
			c0,0.146-0.009,0.288-0.025,0.426c-0.089,1.753-0.78,3.261-2.075,4.524c-1.366,1.4-3.017,2.101-4.949,2.101
			c-1.934,0-3.601-0.7-5-2.101C825.632,189.782,824.949,188.273,824.85,186.525z M803.675,338.125
			c0.096,0.282,0.17,0.573,0.226,0.875c0.033,0.366,0.05,0.75,0.05,1.15c0,0.3-0.017,0.583-0.05,0.85
			c-0.101,0.833-0.334,1.6-0.7,2.3c-0.334,0.634-0.783,1.233-1.351,1.8c-1.366,1.4-3.017,2.101-4.949,2.101
			c-1.934,0-3.601-0.7-5-2.101c-1.167-1.166-1.834-2.533-2-4.1c-0.034-0.267-0.051-0.55-0.051-0.85c0-1.934,0.684-3.601,2.051-5
			c1.399-1.367,3.066-2.051,5-2.051c1.933,0,3.583,0.684,4.949,2.051C802.724,336.023,803.332,337.016,803.675,338.125z"/>
	</g>
</g>
<g id="Layer_2">
	<g>
		<linearGradient id="SVGID_1_" gradientUnits="userSpaceOnUse" x1="185.3237" y1="231.0332" x2="186.4067" y2="103.0583">
			<stop  offset="0.0039" style="stop-color:#3E6484"/>
			<stop  offset="0.1059" style="stop-color:#4E7EA7"/>
			<stop  offset="0.8275" style="stop-color:#93C6E3"/>
			<stop  offset="1" style="stop-color:#D0E6F2"/>
		</linearGradient>
		<path fill-rule="evenodd" clip-rule="evenodd" fill="url(#SVGID_1_)" d="M352.95,110c6.667,0,10,3.333,10,10v68
			c0,6.667-3.333,10-10,10H19c-6.667,0-10-3.333-10-10v-68c0-6.667,3.333-10,10-10H352.95z"/>
		
			<path fill-rule="evenodd" clip-rule="evenodd" fill="none" stroke="#495879" stroke-width="6" stroke-linecap="round" stroke-linejoin="round" stroke-miterlimit="3" d="
			M352.95,110H19c-6.667,0-10,3.333-10,10v68c0,6.667,3.333,10,10,10h333.95c6.667,0,10-3.333,10-10v-68
			C362.95,113.333,359.617,110,352.95,110z"/>
	</g>
	<g>
		<path fill-rule="evenodd" clip-rule="evenodd" fill="#FFFFFF" d="M269.55,151.3c0.29-1.885,1.148-3.334,2.575-4.35h0.025
			c1.453-1.035,3.236-1.553,5.35-1.55c1.853,0.001,3.361,0.376,4.525,1.125V146.5c1.125,0.791,1.841,1.716,2.15,2.775v0.024
			c0.285,1,0.427,2.55,0.425,4.65v7.2c0.002,2.843,0.135,4.768,0.4,5.774v0.025l0.025,0.024c0.042-0.041,0.083-0.083,0.125-0.125
			L285,167.2c0-0.066,0-0.134,0-0.2h-4.15c-0.067-0.482-0.117-1.091-0.15-1.825c-0.003-0.103-0.037-0.193-0.1-0.274
			c-0.065-0.086-0.149-0.144-0.25-0.176c-0.101-0.032-0.201-0.032-0.3,0c-0.103,0.033-0.186,0.092-0.25,0.176
			c-1.268,1.763-2.968,2.646-5.1,2.649c-1.788,0.001-3.238-0.549-4.35-1.649c-1.07-1.116-1.603-2.616-1.6-4.5
			c0.003-2.296,0.812-4.097,2.425-5.4v-0.025c1.545-1.349,4.27-2.023,8.175-2.024c0.1,0,0.25,0,0.45,0
			c0.137-0.001,0.254-0.052,0.35-0.15c0.099-0.097,0.149-0.213,0.15-0.35v-0.3c-0.003-1.547-0.228-2.697-0.675-3.45v-0.025
			c-0.477-0.749-1.302-1.124-2.475-1.125c-1.902,0.019-3.036,1.11-3.4,3.275v0.024h-0.025L269.55,151.3z M253.7,138.45v8.45
			c-0.004,0.1,0.021,0.191,0.075,0.274c0.064,0.09,0.148,0.156,0.25,0.2c0.09,0.038,0.182,0.047,0.275,0.025
			c0.106-0.024,0.198-0.074,0.275-0.15c1.097-1.164,2.438-1.748,4.025-1.75c2.197,0,3.947,0.942,5.25,2.825h-0.025
			c1.247,1.867,1.872,4.393,1.875,7.575c0,3.92-0.659,6.854-1.975,8.8c-1.287,1.862-3.212,2.779-5.775,2.75
			c-2.078,0.005-3.62-0.786-4.625-2.375c-0.072-0.107-0.172-0.174-0.3-0.2c-0.131-0.033-0.256-0.017-0.375,0.05
			c-0.114,0.062-0.189,0.153-0.225,0.275c-0.167,0.566-0.35,1.167-0.55,1.8v-0.025L251.85,167h-2.45v-28.55H253.7z M254.8,150.15
			c-0.732,0.972-1.099,2.289-1.1,3.949v3.95c-0.003,4.052,1.222,6.085,3.675,6.101h0.025c1.272,0.009,2.206-0.6,2.8-1.825V162.3
			c0.565-1.203,0.848-3.254,0.85-6.149c0.002-2.777-0.281-4.702-0.85-5.775c-0.6-1.118-1.5-1.677-2.7-1.675
			C256.441,148.691,255.542,149.175,254.8,150.15z M280.3,157.15c0.001-0.125-0.04-0.233-0.125-0.325
			c-0.087-0.1-0.196-0.158-0.325-0.175c-0.353-0.035-0.653-0.052-0.9-0.051c-3.766,0.003-5.649,1.485-5.65,4.45
			c0.004,2.184,0.954,3.283,2.85,3.3c1.091,0.015,2.041-0.561,2.85-1.725c0.029-0.038,0.054-0.08,0.075-0.125
			c0.815-1.159,1.223-2.743,1.225-4.75V157.15z M285,166.95V167h0.025L285,166.95z M244.925,150.8
			c0.482,1.585,0.741,3.668,0.775,6.25h-11.4c-0.137,0-0.253,0.051-0.35,0.15c-0.1,0.097-0.15,0.214-0.15,0.35
			c0.038,2.545,0.421,4.312,1.15,5.3l0.025,0.025c0.766,0.921,1.724,1.379,2.875,1.375c1.929,0.002,3.162-1.306,3.7-3.925
			c0.014-0.012,0.031-0.021,0.05-0.025l3.85,0.55h0.075v0.025c-0.013,0.028-0.021,0.053-0.025,0.075
			c-1.063,4.384-3.646,6.584-7.75,6.6c-2.567,0.002-4.6-0.923-6.1-2.774h-0.025c-1.519-1.829-2.277-4.504-2.275-8.025
			c0.001-3.602,0.768-6.401,2.3-8.4c1.533-1.971,3.583-2.954,6.15-2.949c1.78,0.003,3.28,0.485,4.5,1.449
			c0.017,0.018,0.033,0.034,0.05,0.051C243.568,147.871,244.426,149.172,244.925,150.8z M237.625,148.55
			c-2.191,0.021-3.417,1.703-3.675,5.05c-0.009,0.097,0.008,0.188,0.05,0.275c0.048,0.084,0.115,0.15,0.2,0.2
			c0.077,0.049,0.16,0.074,0.25,0.075h6.35c0.09-0.002,0.173-0.027,0.25-0.075c0.084-0.042,0.151-0.1,0.2-0.175
			c0.041-0.087,0.057-0.179,0.05-0.275c-0.115-3.399-1.332-5.091-3.65-5.075H237.625z M224.4,138.45h4l-6,28.6l0.025-0.024v0.024
			H222.4h-4.25L214.1,148.4c-0.025-0.12-0.083-0.221-0.175-0.301c-0.096-0.07-0.204-0.104-0.325-0.1
			c-0.121,0.005-0.229,0.046-0.325,0.125c-0.092,0.071-0.15,0.163-0.175,0.275l-3.95,18.649l0.025-0.024v0.024h-0.025h-4.35
			l-6.15-28.55v-0.05h4.8l3.4,18.899c0.023,0.111,0.081,0.203,0.175,0.275c0.095,0.079,0.203,0.121,0.325,0.125
			c0.113,0.005,0.213-0.028,0.3-0.1c0.101-0.079,0.168-0.18,0.2-0.301l3.95-18.899h4.1h0.025v0.024l-0.025-0.024l3.95,18.95
			c0.024,0.12,0.082,0.22,0.175,0.3c0.096,0.071,0.204,0.104,0.325,0.1c0.122-0.004,0.23-0.045,0.325-0.125
			c0.093-0.071,0.151-0.163,0.175-0.274l3.55-18.875V138.45z M314.85,147.8c1.069-1.496,2.519-2.246,4.35-2.25
			c2.1,0.002,3.8,0.927,5.1,2.775c0.027,0.039,0.06,0.072,0.1,0.1c1.269,1.861,1.902,4.486,1.9,7.875
			c-0.004,3.069-0.604,5.686-1.8,7.851c-1.17,2.165-3.02,3.248-5.55,3.25c-1.525,0.001-2.792-0.499-3.8-1.5
			c-0.096-0.1-0.213-0.149-0.35-0.15c-0.137,0.001-0.253,0.051-0.35,0.15c-0.099,0.096-0.149,0.213-0.15,0.35v7.9H310V145.9h3.95
			v1.6c0.001,0.11,0.035,0.21,0.1,0.3c0.064,0.086,0.147,0.145,0.25,0.175c0.1,0.034,0.2,0.034,0.3,0
			C314.703,147.943,314.787,147.886,314.85,147.8z M315.35,150.25l-0.025,0.025c-0.686,1.029-1.027,2.487-1.025,4.375v3.5
			c0.002,1.354,0.111,2.412,0.325,3.175c0.187,0.763,0.604,1.429,1.25,2v0.024c0.632,0.507,1.324,0.757,2.075,0.75h0.025
			c2.453-0.005,3.678-2.604,3.675-7.8c0.003-5.062-1.188-7.595-3.575-7.6h-0.025C316.99,148.682,316.089,149.198,315.35,150.25z
			 M293.6,147.8c0.063,0.086,0.147,0.145,0.25,0.175c0.1,0.034,0.2,0.034,0.3,0c0.103-0.031,0.187-0.089,0.25-0.175
			c1.069-1.496,2.519-2.246,4.35-2.25c2.123,0.002,3.814,0.927,5.075,2.775c0.04,0.059,0.089,0.109,0.15,0.149
			c1.251,1.853,1.876,4.461,1.875,7.825c-0.004,3.069-0.604,5.686-1.8,7.851c-1.169,2.164-3.002,3.247-5.5,3.25
			c-1.557,0.001-2.84-0.499-3.85-1.5c-0.097-0.1-0.213-0.149-0.35-0.15c-0.137,0.001-0.253,0.051-0.35,0.15
			c-0.099,0.096-0.149,0.213-0.15,0.35v7.9h-4.3V145.9h3.95v1.6C293.501,147.61,293.535,147.71,293.6,147.8z M294.875,150.275
			c-0.686,1.029-1.027,2.487-1.025,4.375v3.5c0.002,1.354,0.111,2.412,0.325,3.175v0.024c0.22,0.753,0.629,1.411,1.225,1.976
			l0.025,0.024c0.632,0.507,1.324,0.757,2.075,0.75h0.025c2.453-0.005,3.678-2.604,3.675-7.8c0.002-5.062-1.189-7.595-3.575-7.6
			H297.6c-1.061-0.019-1.96,0.498-2.7,1.55L294.875,150.275z M111.25,147.3c1.311-1.27,2.994-1.902,5.05-1.899
			c3.511,0.003,5.786,1.804,6.825,5.399v0.05l-0.025-0.024l-3.375,0.899V151.7c-0.611-2.089-1.802-3.139-3.575-3.15
			c-0.814,0.001-1.465,0.251-1.95,0.75v-0.024c-0.533,0.497-0.8,1.14-0.8,1.925c-0.001,0.801,0.257,1.409,0.775,1.825l0.025,0.024
			c0.484,0.392,1.634,0.884,3.45,1.476c2.204,0.701,3.787,1.526,4.75,2.475v0.025c0.964,0.912,1.447,2.188,1.45,3.824
			c-0.001,1.853-0.677,3.443-2.025,4.775l-0.025,0.025c-1.419,1.265-3.303,1.897-5.65,1.899c-4.454-0.001-6.988-2.051-7.6-6.149
			c0.008-0.019,0.016-0.035,0.025-0.051l3.65-0.649c0.017-0.009,0.033-0.017,0.05-0.025l-0.025,0.025
			c0.456,2.451,1.806,3.668,4.05,3.649c1.074,0,1.916-0.275,2.525-0.824c0.016-0.008,0.033-0.017,0.05-0.025
			c0.486-0.524,0.728-1.191,0.725-2c0.006-0.529-0.152-1.037-0.475-1.525l-0.025-0.024c-0.383-0.575-1.45-1.116-3.2-1.625
			c-1.633-0.559-2.875-1.066-3.725-1.525c-0.852-0.429-1.552-1.07-2.1-1.925v0.025c-0.552-0.925-0.827-1.941-0.825-3.051
			c0.004-1.785,0.67-3.294,2-4.524V147.3z M94.05,147.8c0.064,0.086,0.147,0.145,0.25,0.175c0.1,0.034,0.2,0.034,0.3,0
			c0.103-0.031,0.187-0.089,0.25-0.175c1.069-1.496,2.519-2.246,4.35-2.25c2.1,0.002,3.8,0.927,5.1,2.775
			c0.027,0.039,0.06,0.072,0.1,0.1c1.269,1.861,1.902,4.486,1.9,7.875c-0.004,3.069-0.604,5.686-1.8,7.851
			c-1.17,2.165-3.02,3.248-5.55,3.25c-1.525,0.001-2.792-0.499-3.8-1.5c-0.096-0.1-0.213-0.149-0.35-0.15
			c-0.137,0.001-0.253,0.051-0.35,0.15c-0.099,0.096-0.149,0.213-0.15,0.35v7.9h-4.35V145.9h4v1.6
			C93.951,147.61,93.985,147.71,94.05,147.8z M95.325,150.275c-0.686,1.029-1.027,2.487-1.025,4.375v3.5
			c0.004,1.343,0.096,2.394,0.275,3.149v0.05c0.225,0.754,0.658,1.412,1.3,1.976c0.593,0.516,1.284,0.773,2.075,0.774h0.025
			c2.453-0.005,3.678-2.604,3.675-7.8c0.003-5.062-1.188-7.595-3.575-7.6H98.05c-1.06-0.019-1.96,0.498-2.7,1.55L95.325,150.275z
			 M73.5,147.5c0.001,0.11,0.035,0.21,0.1,0.3c0.063,0.086,0.147,0.145,0.25,0.175c0.1,0.034,0.2,0.034,0.3,0
			c0.103-0.031,0.187-0.089,0.25-0.175c1.069-1.496,2.519-2.246,4.35-2.25c2.1,0.002,3.8,0.927,5.1,2.775
			c0.026,0.039,0.06,0.072,0.1,0.1c1.268,1.861,1.901,4.486,1.9,7.875c-0.004,3.069-0.604,5.686-1.8,7.851
			c-1.17,2.165-3.02,3.248-5.55,3.25c-1.525,0.001-2.792-0.499-3.8-1.5c-0.097-0.1-0.213-0.149-0.35-0.15
			c-0.137,0.001-0.253,0.051-0.35,0.15c-0.099,0.096-0.149,0.213-0.15,0.35v7.9h-4.3V145.9h3.95V147.5z M74.875,150.275
			c-0.686,1.029-1.027,2.487-1.025,4.375v3.5c0.002,1.354,0.111,2.412,0.325,3.175c0.187,0.763,0.604,1.429,1.25,2v0.024
			c0.632,0.507,1.324,0.757,2.075,0.75h0.025c2.453-0.005,3.678-2.604,3.675-7.8c0.002-5.062-1.189-7.595-3.575-7.6H77.6
			c-1.061-0.019-1.96,0.498-2.7,1.55L74.875,150.275z M59.15,138.45l0.025,0.024l7.675,28.45l0.025,0.05
			c0.042-0.041,0.083-0.083,0.125-0.125l-0.15,0.351c0-0.066,0-0.134,0-0.2h-4.775l-1.65-6.775
			c-0.026-0.111-0.084-0.203-0.175-0.274c-0.088-0.069-0.188-0.103-0.3-0.101h-7.7c-0.112-0.002-0.212,0.031-0.3,0.101
			c-0.09,0.071-0.149,0.163-0.175,0.274l-1.65,6.75L50.1,167h-4.425l8.2-28.55H59.15z M56.05,144.55
			c-0.111-0.002-0.211,0.031-0.3,0.101c-0.089,0.071-0.148,0.163-0.175,0.274l-2.65,10.601c-0.031,0.102-0.031,0.201,0,0.3
			c0.042,0.094,0.109,0.169,0.2,0.225c0.083,0.063,0.174,0.097,0.275,0.101h5.3c0.101-0.004,0.192-0.037,0.275-0.101
			c0.091-0.056,0.158-0.131,0.2-0.225c0.031-0.099,0.031-0.198,0-0.3l-2.65-10.601c-0.027-0.111-0.085-0.203-0.175-0.274
			C56.261,144.581,56.162,144.548,56.05,144.55z M171.925,148.55c-2.188,0.022-3.429,1.705-3.725,5.05
			c-0.009,0.097,0.008,0.188,0.05,0.275c0.047,0.084,0.114,0.15,0.2,0.2c0.076,0.05,0.16,0.075,0.25,0.075h6.4
			c0.089-0.002,0.173-0.027,0.25-0.075c0.084-0.042,0.15-0.1,0.2-0.175c0.041-0.087,0.057-0.179,0.05-0.275
			c-0.115-3.399-1.332-5.091-3.65-5.075H171.925z M176.6,146.85c0.017,0.018,0.033,0.034,0.05,0.051
			c1.216,0.972,2.058,2.271,2.525,3.899c0.515,1.585,0.79,3.669,0.825,6.25h-11.45c-0.137,0-0.253,0.051-0.35,0.15
			c-0.1,0.097-0.15,0.214-0.15,0.35c0.036,2.547,0.436,4.313,1.2,5.3l0.025,0.025c0.767,0.923,1.709,1.381,2.825,1.375
			c1.963,0.001,3.213-1.308,3.75-3.925V160.3h0.025l3.875,0.55h0.075v0.025c-0.013,0.028-0.021,0.053-0.025,0.075
			c-1.063,4.384-3.646,6.584-7.75,6.6c-2.567,0.002-4.6-0.923-6.1-2.774h-0.025c-1.551-1.829-2.326-4.505-2.325-8.025
			c0.002-3.602,0.786-6.401,2.35-8.4c1.532-1.97,3.565-2.953,6.1-2.949C173.862,145.403,175.378,145.886,176.6,146.85z M188.05,167
			h-4.4v-28.55h4.4V167z M159.5,145.9V167h-4v-1.35c-0.001-0.11-0.035-0.21-0.1-0.301c-0.063-0.085-0.147-0.144-0.25-0.175
			c-0.1-0.033-0.2-0.033-0.3,0c-0.103,0.031-0.186,0.09-0.25,0.175c-1.071,1.47-2.571,2.202-4.5,2.2
			c-1.191-0.003-2.199-0.277-3.025-0.825c-0.805-0.534-1.372-1.293-1.7-2.274c-0.01-0.027-0.018-0.053-0.025-0.075
			c-0.332-1.012-0.499-2.67-0.5-4.975v-13.5h4.3V159.3c0.002,1.868,0.152,3.118,0.45,3.75v0.025c0.283,0.65,0.967,0.976,2.05,0.975
			c1.362,0.001,2.278-0.565,2.75-1.7c0.532-1.134,0.798-3.233,0.8-6.3V145.9H159.5z M132.05,142.7v7.6
			c0.001,0.137,0.051,0.254,0.15,0.351c0.096,0.099,0.213,0.148,0.35,0.149h8.4v3.75h-8.4c-0.137,0.001-0.253,0.052-0.35,0.15
			c-0.099,0.097-0.149,0.213-0.15,0.35V167h-4.7v-28.55h15.85v3.75h-10.65c-0.137,0.001-0.253,0.051-0.35,0.149
			C132.101,142.446,132.051,142.563,132.05,142.7z"/>
	</g>
</g>
</svg>
